<?xml version="1.0" encoding="utf-8"?>
<!-- Generator: Adobe Illustrator 21.1.0, SVG Export Plug-In . SVG Version: 6.00 Build 0)  -->
<svg version="1.1" id="Layer_1" xmlns="http://www.w3.org/2000/svg" xmlns:xlink="http://www.w3.org/1999/xlink" x="0px" y="0px"
	 viewBox="0 0 200 62" style="enable-background:new 0 0 200 62;" xml:space="preserve">
<style type="text/css">
	.st0{fill:#191825;}
	.st1{fill:#0073E6;}
	.st2{font-family:'Raleway-Bold';}
	.st3{font-size:32.1598px;}
</style>
<path class="st0" d="M20.6,10.2c0,0,0.6,1,0.3,1.5c-0.4,0.8-0.7,3.3-1.8,4c-1.6,0.4-3.5-2.3-3.5-2.3l2.4-2.1L20.6,10.2z"/>
<path class="st0" d="M40.8,10.2c0,0-0.6,1-0.3,1.5c0.4,0.8,0.7,3.3,1.8,4c1.6,0.4,3.5-2.3,3.5-2.3l-2.4-2.1L40.8,10.2z"/>
<path class="st1" d="M30.9,4.6C16.4,4.6,4.6,16.4,4.6,30.9s11.8,26.3,26.3,26.3c14.5,0,26.3-11.8,26.3-26.3
	C57.3,16.4,45.5,4.6,30.9,4.6z M27.4,50.2c-0.8,1.5-3.2,1.6-4.9,0.7c-5.4-2.9-9.7-6.4-11.4-11.5c-0.5-1.5-0.3-3.3,0.9-4
	c0.6-0.4,1.2-0.7,1.8-0.9c7.4-2.7,15.7,6.3,14.3,13.5C28.1,48.8,27.8,49.5,27.4,50.2z M33.7,48c-1.4-7.1,6.9-16.1,14.3-13.5
	c0.6,0.2,1.2,0.5,1.8,0.9c1.2,0.8,1.4,2.5,0.9,4C49,44.6,44.8,48.1,39.4,51c-1.7,0.9-4.1,0.8-4.9-0.7C34.1,49.5,33.8,48.8,33.7,48z
	 M30.9,20.7c-2.7,0-4.8,0.9-6.4,1.8c-4.4,2.3-6.6,5.9-11.5,6.2c-0.3,0-0.5,0-0.8,0c-6.3,0-0.4-10.7,3.2-14.3c4-4,9.7-6,15.5-6
	c5.7,0,11.5,2,15.5,6c3.6,3.6,9.6,14.3,3.2,14.3c-0.3,0-0.6,0-0.8,0c-4.9-0.4-7.1-3.9-11.5-6.2C35.8,21.6,33.6,20.7,30.9,20.7z"/>
<path class="st1" d="M30.9,59.9c-7.7,0-15-3-20.5-8.5C5,45.9,2,38.7,2,30.9s3-15,8.5-20.5C15.9,5,23.2,2,30.9,2s15,3,20.5,8.5
	c5.5,5.5,8.5,12.7,8.5,20.5s-3,15-8.5,20.5C45.9,56.9,38.7,59.9,30.9,59.9z M30.9,7.3C17.9,7.3,7.3,17.9,7.3,30.9
	c0,13.1,10.6,23.7,23.7,23.7S54.6,44,54.6,30.9C54.6,17.9,44,7.3,30.9,7.3z"/>
<path class="st1" d="M30.9,58.3C15.9,58.3,3.6,46,3.6,30.9c0-15.1,12.3-27.4,27.4-27.4c15.1,0,27.4,12.3,27.4,27.4
	S46,58.3,30.9,58.3z M30.9,5.7C17,5.7,5.7,17,5.7,30.9S17,56.2,30.9,56.2s25.3-11.3,25.3-25.3S44.9,5.7,30.9,5.7z"/>
<path class="st1" d="M30.9,48.9c-0.8,0-1.8-0.2-2.7-0.9c1.4-7.1-6.9-16.1-14.3-13.5c-1.6-2.3-1.9-3.6-0.8-5.8
	c4.9-0.4,7.1-3.9,11.5-6.2c1.6-0.8,3.7-1.8,6.4-1.8c2.7,0,4.8,0.9,6.4,1.8c4.4,2.3,6.6,5.9,11.5,6.2c1.1,2.2,0.7,3.5-0.8,5.8
	c-7.4-2.7-15.7,6.3-14.3,13.5C32.7,48.7,31.8,48.9,30.9,48.9z"/>
<path class="st1" d="M35,28.3c0.5-2.3-0.9-4.5-3.1-5.1c-2.3-0.5-4.5,0.9-5.1,3.1c-0.5,2.3,0.9,4.5,3.1,5.1
	C32.2,31.9,34.5,30.5,35,28.3z"/>
<path class="st1" d="M30.9,35.3C30.9,35.3,30.9,35.3,30.9,35.3c-1.7,0-3.1-0.5-3.1-1s1.4-1,3.1-1c0,0,0,0,0,0s0,0,0,0
	c1.7,0,3.1,0.5,3.1,1S32.7,35.3,30.9,35.3C31,35.3,30.9,35.3,30.9,35.3z"/>
<path class="st0" d="M58.4,20.6c0,0.3-0.1,0.7-0.4,0.9c-3.7,2.6-2.3,1.7-6.3,3.8c-0.3,0.1-0.6,0.1-0.9,0c-0.2-0.1-0.4-0.2-0.5-0.4
	C50.1,24.6,50,24,50,23.7c0,0,0-0.1,0-0.1c0,0,0-0.1-0.1-0.1c0,0-0.1-0.1-0.1-0.1c0,0-0.1,0-0.1,0c-0.4-0.1-1.1-0.3-1.4-0.7
	c-0.3-0.4-0.4-1.3-0.4-1.7c0-0.1,0-0.1,0-0.1c0,0,0-0.1-0.1-0.1c0,0-0.1-0.1-0.1-0.1c0,0-0.1,0-0.1,0c-0.5,0-1.6-0.2-2.1-0.8
	c-0.4-0.6-0.4-1.7-0.3-2.2c0,0,0-0.1,0-0.1c0,0,0-0.1-0.1-0.1c0,0-0.1-0.1-0.1-0.1c0,0-0.1-0.1-0.2-0.1c-1.4-0.2-1.7-1-1.7-1.7
	c0-3.6,8.8-7.6,10.6-6.3c0.5,0.4,0.7,1.4,0.7,1.8c0,0.1,0.1,0.3,0.2,0.3c0.5,0.2,1.6,0.6,1.9,1.3c0.3,0.6,0,1.7-0.2,2.2
	c-0.1,0.2,0.1,0.4,0.3,0.5c0.4,0.1,1.1,0.5,1.3,0.9c0.5,0.8-0.2,2.3-0.3,2.5c0,0.1,0,0.3,0.1,0.4c0.2,0.2,0.4,0.5,0.5,0.7
	C58.4,19.9,58.4,20.3,58.4,20.6z"/>
<path class="st0" d="M49.2,14.2l-4.1,3.3c0,0,0-0.1-0.1-0.1c0,0-0.1-0.1-0.1-0.1L49.2,14.2z"/>
<path class="st0" d="M52,17.2l-4.2,3.5c0,0,0-0.1-0.1-0.1c0,0-0.1-0.1-0.1-0.1L52,17.2z"/>
<path class="st0" d="M54.2,20.5L50,23.6c0,0,0-0.1-0.1-0.1c0,0-0.1-0.1-0.1-0.1L54.2,20.5z"/>
<path class="st0" d="M3,20.6c0,0.3,0.1,0.7,0.4,0.9c3.7,2.6,2.3,1.7,6.3,3.8c0.3,0.1,0.6,0.1,0.9,0c0.2-0.1,0.4-0.2,0.6-0.4
	c0.2-0.3,0.3-0.9,0.3-1.2c0,0,0-0.1,0-0.1c0,0,0-0.1,0.1-0.1c0,0,0.1-0.1,0.1-0.1c0,0,0.1,0,0.1,0c0.4-0.1,1.1-0.3,1.4-0.7
	c0.3-0.4,0.4-1.3,0.4-1.7c0-0.1,0-0.1,0-0.1c0,0,0-0.1,0.1-0.1c0,0,0.1-0.1,0.1-0.1c0,0,0.1,0,0.1,0c0.5,0,1.6-0.2,2.1-0.8
	c0.4-0.6,0.4-1.7,0.3-2.2c0,0,0-0.1,0-0.1c0,0,0-0.1,0.1-0.1c0,0,0.1-0.1,0.1-0.1c0,0,0.1-0.1,0.2-0.1c1.4-0.2,1.7-1,1.7-1.7
	c0-3.6-8.8-7.6-10.6-6.3C7.3,9.5,7.1,10.5,7,11c0,0.1-0.1,0.3-0.2,0.3c-0.5,0.2-1.6,0.6-1.9,1.3c-0.3,0.6,0,1.7,0.2,2.2
	c0.1,0.2-0.1,0.4-0.3,0.5c-0.4,0.1-1.1,0.5-1.3,0.9c-0.5,0.8,0.2,2.3,0.3,2.5c0,0.1,0,0.3-0.1,0.4c-0.2,0.2-0.4,0.5-0.5,0.7
	C3.1,19.9,3,20.3,3,20.6z"/>
<path class="st0" d="M12.2,14.2l4.1,3.3c0,0,0-0.1,0.1-0.1c0,0,0.1-0.1,0.1-0.1L12.2,14.2z"/>
<path class="st0" d="M9.4,17.2l4.2,3.5c0,0,0-0.1,0.1-0.1c0,0,0.1-0.1,0.1-0.1L9.4,17.2z"/>
<text transform="matrix(1 0 0 1 64.001 27.1273)" class="st2 st3">DRIVING</text>
<text transform="matrix(1 0 0 1 63.001 56.6307)" class="st2 st3">LICENCE</text>
</svg>
